<?xml version="1.0" encoding="UTF-8"?>
<svg width="41px" height="39px" viewBox="0 0 41 39" version="1.1" xmlns="http://www.w3.org/2000/svg" xmlns:xlink="http://www.w3.org/1999/xlink">
    <!-- Generator: Sketch 48.2 (47327) - http://www.bohemiancoding.com/sketch -->
    <title>Artboard</title>
    <desc>Created with Sketch.</desc>
    <defs></defs>
    <g id="xs-&lt;700" stroke="none" stroke-width="1" fill="none" fill-rule="evenodd">
        <g id="Artboard">
            <g id="Slider" transform="translate(20.000000, 19.500000) rotate(-90.000000) translate(-20.000000, -19.500000) translate(0.500000, -1.500000)">
                <path d="M0.798630746,20.160588 L17.7844049,1.64697152 C18.531147,0.833061195 19.7963058,0.778610596 20.6102161,1.5253527 C20.6459073,1.55809845 20.6803971,1.59212997 20.7136174,1.62737995 L38.1775159,20.1583167 C38.5225071,20.5243867 38.6287578,20.6620173 38.7297461,20.8308757 C38.8307345,20.9997342 38.8982979,21.1699372 38.9406143,21.3620859 C38.9829307,21.5542347 39,21.7272665 39,22.2302836 L39,39.4361148 C39,40.3276335 38.9071744,40.6509198 38.7328673,40.9768457 C38.5585602,41.3027716 38.3027716,41.5585602 37.9768457,41.7328673 C37.6509198,41.9071744 37.3276335,42 36.4361148,42 L2.5638852,42 C1.67236646,42 1.34908022,41.9071744 1.0231543,41.7328673 C0.697228371,41.5585602 0.441439796,41.3027716 0.267132704,40.9768457 C0.0928256111,40.6509198 4.01235366e-17,40.3276335 -6.90560205e-17,39.4361148 L1.55417615e-15,22.2123767 C2.37613025e-15,21.715395 0.0163593482,21.5448942 0.057218497,21.3554009 C0.0980776459,21.1659076 0.163436595,20.9979918 0.261435798,20.8307395 C0.359435,20.6634872 0.46264723,20.5267927 0.798630746,20.160588 Z" id="Rectangle-2" fill="#000000"></path>
                <g id="Group-5" transform="translate(7.000000, 22.000000)" fill="#FFFFFF">
                    <polygon id="icon/full-screen" transform="translate(6.500000, 5.656854) rotate(-315.000000) translate(-6.500000, -5.656854) " points="10.5 7.68032355 4.46484546 7.68032355 4.46484546 1.65685425 2.5 1.65685425 2.5 9.65685425 10.5 9.65685425"></polygon>
                    <polygon id="icon/full-screen-copy" transform="translate(18.500000, 5.656854) scale(-1, 1) rotate(-315.000000) translate(-18.500000, -5.656854) " points="22.5 7.68032355 16.4648455 7.68032355 16.4648455 1.65685425 14.5 1.65685425 14.5 9.65685425 22.5 9.65685425"></polygon>
                </g>
            </g>
        </g>
    </g>
</svg>